# Blender v2.92.0 OBJ File: 'Bunny.blend'
# www.blender.org
mtllib Bunny.mtl
o Roundcube.005
v -4.668704 7.630527 0.833734
v -2.354875 6.048562 0.525504
v -4.610464 7.669704 -0.488495
v -2.328547 6.066274 -0.072221
v -3.436142 8.880680 0.925068
v -1.797684 6.613707 0.566793
v -3.377901 8.919860 -0.397161
v -1.771356 6.631418 -0.030932
v -2.673553 6.161167 -0.227637
v -1.850448 6.996020 -0.166644
v -2.712446 6.135004 0.655347
v -1.889341 6.969856 0.716340
v 1.665840 -9.650885 1.577990
v 2.467162 -9.715120 1.766085
v 1.324818 -8.972853 1.796571
v 2.237637 -8.772659 2.235326
v 3.156467 -9.295137 1.592602
v 3.379981 -9.454649 0.737387
v 3.150457 -8.537155 1.814466
v 3.528559 -8.404299 0.780528
v 3.156468 -9.225540 -0.101866
v 2.467162 -9.629881 -0.309206
v 3.150457 -8.451918 -0.260825
v 2.237638 -8.652113 -0.699579
v 1.665840 -9.581289 -0.116478
v 1.554342 -9.890348 0.719491
v 1.324819 -8.887617 -0.278720
v 0.946716 -9.020472 0.755219
v 2.494106 -9.785210 0.723810
v 0.671118 -4.690682 1.707458
v 1.204998 -4.431681 1.892139
v 1.801625 -4.420881 1.718540
v 0.512707 -4.558011 0.938503
v 1.140855 -4.124475 0.956310
v 1.897290 -4.227571 0.952076
v 0.671118 -4.627176 0.161259
v 1.204998 -4.353902 -0.001560
v 1.801625 -4.357374 0.172341
v 0.698540 -5.436327 1.869868
v 1.390351 -5.222545 2.238199
v 2.110847 -5.099271 1.883712
v 0.421755 -5.399297 0.903950
v 2.358948 -4.936972 0.922939
v 0.698540 -5.356990 -0.061751
v 1.390352 -5.113724 -0.411310
v 2.110847 -5.019933 -0.047908
v 1.246366 -8.652990 1.811825
v 2.159445 -8.445511 2.247166
v 3.075721 -8.216402 1.829757
v 0.869926 -8.693056 0.768667
v 3.448966 -8.077553 0.793948
v 1.246367 -8.567579 -0.267692
v 2.159446 -8.325098 -0.684552
v 3.075722 -8.130991 -0.249760
v -3.214841 -9.172298 1.580457
v -2.535899 -9.615940 1.751411
v -3.184646 -8.417807 1.804906
v -2.275203 -8.686396 2.223512
v -1.729727 -9.579567 1.562273
v -1.626456 -9.819021 0.702789
v -1.365760 -8.916607 1.782635
v -0.989057 -8.973593 0.740536
v -1.729727 -9.503925 -0.131936
v -2.535898 -9.523296 -0.323562
v -1.365760 -8.823963 -0.292338
v -2.275203 -8.555376 -0.710944
v -3.214842 -9.096653 -0.113751
v -3.445342 -9.320217 0.725060
v -3.184645 -8.325161 -0.270067
v -3.561350 -8.268177 0.772032
v -2.566503 -9.680994 0.708952
v -1.701119 -4.362241 1.720949
v -1.102323 -4.394753 1.893568
v -0.574794 -4.671118 1.707159
v -1.792053 -4.163335 0.955308
v -1.029468 -4.087348 0.958701
v -0.412591 -4.541633 0.938418
v -1.701119 -4.293214 0.174987
v -1.102322 -4.310215 0.000157
v -0.574794 -4.602093 0.161196
v -2.032681 -5.028102 1.884284
v -1.312848 -5.177778 2.237206
v -0.625597 -5.413976 1.867055
v -2.277862 -4.853998 0.924471
v -0.347834 -5.383279 0.900839
v -2.032681 -4.941870 -0.047040
v -1.312848 -5.059500 -0.411897
v -0.625597 -5.327744 -0.064268
v -3.099502 -8.100794 1.821177
v -2.186392 -8.363117 2.236350
v -1.276913 -8.600615 1.798861
v -3.471142 -7.945357 0.786445
v -0.901642 -8.650003 0.754984
v -3.099502 -8.007961 -0.258022
v -2.186392 -8.232243 -0.694920
v -1.276913 -8.507778 -0.280338
v -1.622951 -4.253271 2.683532
v -0.458823 -4.616685 3.057573
v 0.705304 -4.614359 3.057109
v -1.969122 -3.241383 2.990086
v -0.574214 -3.383792 3.764625
v 0.820694 -3.383047 3.764205
v -1.672363 -1.435343 2.425427
v -0.468935 -1.410765 3.200578
v 0.734493 -1.409967 3.198911
v 1.869431 -4.253977 2.680526
v 2.226893 -4.759205 1.558932
v 2.226893 -4.754817 0.388962
v 2.215603 -3.239456 2.993322
v 2.972775 -3.373271 1.698248
v 2.972775 -3.344724 0.289660
v 1.937921 -1.437041 2.423550
v 2.262359 0.041375 1.746575
v 2.372202 0.408114 0.356618
v 1.869431 -4.383105 -0.775368
v 0.705305 -4.727812 -1.142270
v -0.458823 -4.725056 -1.141868
v 2.215603 -3.203746 -1.109047
v 0.820695 -3.306968 -1.870064
v -0.574213 -3.306818 -1.869967
v 1.777478 0.323974 -1.045174
v 0.674653 0.450555 -1.804470
v -0.428171 0.451585 -1.804444
v -1.622950 -4.383107 -0.775369
v -1.980412 -4.754919 0.393114
v -1.980412 -4.758304 1.563781
v -1.969121 -3.199105 -1.106244
v -2.726294 -3.344426 0.287975
v -2.726294 -3.373546 1.696822
v -1.530996 0.327322 -1.045496
v -2.127818 0.412023 0.355888
v -2.077025 0.073439 1.752325
v -0.572467 -5.525263 0.241250
v 0.818948 -5.525548 0.241605
v -0.574214 -5.566950 1.646354
v 0.820694 -5.570355 1.644706
v -1.501550 -0.102672 2.034595
v -0.417062 0.358399 2.477570
v 0.669899 0.359737 2.477961
v 1.751513 -0.096174 2.039481
v -1.530996 1.483903 1.652395
v -0.428172 2.156169 1.426815
v 0.674653 2.156240 1.426363
v 1.777477 1.486051 1.650728
v -1.530996 1.811493 0.523008
v -0.428172 2.573787 0.390820
v 0.674653 2.573792 0.390758
v 1.777478 1.811098 0.520392
v -1.253168 1.481704 -0.661536
v -0.335562 1.836333 -1.013327
v 0.582044 1.836503 -1.013453
v 1.499649 1.480927 -0.662420
v -0.866825 2.828500 3.205600
v -0.228839 2.603849 3.361033
v 0.409148 2.603850 3.361033
v -1.059992 3.421555 3.509944
v -0.293228 3.283638 3.907882
v 0.473536 3.283638 3.907882
v -1.059993 4.049219 3.624248
v -0.293228 4.037996 4.045258
v 0.473536 4.037996 4.045258
v 1.047134 2.828500 3.205600
v 2.322488 2.529708 2.218077
v 2.375225 2.895484 -0.008747
v 1.240300 3.421555 3.509944
v 3.155081 4.235126 1.638351
v 3.251341 4.403777 -0.123766
v 1.240301 4.049219 3.624249
v 2.682969 5.373889 1.756135
v 2.766433 5.614193 -0.206456
v 1.832901 3.433875 -1.264338
v 0.667686 3.103788 -1.599287
v -0.479289 3.103788 -1.599287
v 2.161928 4.598034 -1.603976
v 0.776335 4.487104 -2.329614
v -0.587939 4.487104 -2.329614
v 1.668970 5.395866 -1.629309
v 0.570154 5.504225 -2.369192
v -0.511758 5.504226 -2.369192
v -1.644504 3.433876 -1.264338
v -2.186828 2.895485 -0.008748
v -2.134092 2.529708 2.218076
v -1.973531 4.598034 -1.603976
v -3.062944 4.403778 -0.123767
v -2.966684 4.235126 1.638350
v -1.610573 5.395866 -1.629309
v -2.708038 5.614194 -0.206457
v -2.624574 5.373888 1.756134
v -0.678542 2.019410 -0.116287
v 0.866938 2.019410 -0.116287
v -0.654986 1.923437 1.645612
v 0.843382 1.923437 1.645612
v -0.717586 4.443493 3.638988
v -0.211643 4.601827 3.867832
v 0.294300 4.601828 3.867832
v 0.800243 4.443492 3.638989
v -1.755904 6.464838 1.505691
v -0.561854 7.096249 1.640477
v 0.762052 7.096248 1.640477
v 1.806093 6.439244 1.626649
v -1.785100 6.799960 -0.078127
v -0.582677 7.351158 0.083210
v 0.782876 7.351158 0.083210
v 1.837519 6.799961 -0.078126
v -1.354453 6.242779 -1.355367
v -0.429178 6.577302 -1.699115
v 0.481598 6.577302 -1.699115
v 1.406873 6.242778 -1.355366
v 1.755761 2.601003 2.490174
v 0.544014 6.280620 2.825069
v 1.356045 5.772155 2.687261
v -1.569622 2.601004 2.490173
v -1.294983 5.784953 2.626782
v 2.282782 3.793656 2.374763
v -2.096643 3.793656 2.374762
v -0.464371 2.169098 2.293036
v 2.046727 4.722818 2.499174
v 0.650511 2.169098 2.293036
v -1.925588 4.722819 2.499174
v -0.407949 6.280620 2.825069
v 4.778797 7.458603 -0.403297
v 2.419167 5.959093 -0.035823
v 4.778798 7.462764 0.920787
v 2.419168 5.960973 0.562741
v 3.594174 8.757484 -0.407377
v 1.883649 6.546263 -0.037668
v 3.594174 8.761643 0.916707
v 1.883649 6.548144 0.560897
v 2.774012 6.038064 0.705330
v 1.982920 6.905457 0.702605
v 2.774011 6.035287 -0.178894
v 1.982920 6.902679 -0.181618
v 3.918561 8.969197 0.643678
v 6.110083 10.932808 0.533480
v 3.918560 8.966304 -0.277113
v 6.110083 10.930569 -0.179253
v 4.993071 7.788660 0.647386
v 6.941803 10.019021 0.536350
v 4.993070 7.785769 -0.273405
v 6.941803 10.016783 -0.176383
v 4.048238 9.254015 0.713837
v 4.048236 9.250675 -0.349060
v 5.288578 7.887945 -0.344780
v 5.288577 7.891285 0.718117
v 4.687748 10.013523 0.787044
v 4.687749 10.009710 -0.427036
v 6.104510 8.453152 -0.422147
v 6.104510 8.456965 0.791933
v 6.803598 10.951921 0.272654
v 6.803595 10.951321 0.081448
v 7.026723 10.706779 0.273424
v 7.026722 10.706179 0.082218
v 6.957654 10.884677 0.184482
v 6.957655 10.884630 0.170041
v 6.974507 10.866161 0.184540
v 6.974509 10.866117 0.170099
v -3.798436 9.264410 -0.133474
v -5.915246 11.310061 -0.061925
v -3.838937 9.237164 0.786026
v -5.946596 11.288973 0.649809
v -4.916520 8.128073 -0.216394
v -6.780693 10.430485 -0.126108
v -4.957023 8.100828 0.703106
v -6.812043 10.409395 0.585626
v -3.913819 9.555917 -0.201073
v -3.960572 9.524467 0.860335
v -5.251211 8.212759 0.764618
v -5.204459 8.244208 -0.296789
v -4.519704 10.341941 -0.280168
v -4.573107 10.306019 0.932210
v -6.047323 8.807736 0.822879
v -5.993921 8.843660 -0.389499
v -6.618276 11.349848 0.169419
v -6.626685 11.344189 0.360357
v -6.850450 11.113881 0.152201
v -6.858861 11.108225 0.343139
v -6.778535 11.286476 0.248990
v -6.779170 11.286048 0.263411
v -6.796070 11.268654 0.247690
v -6.796705 11.268227 0.262110
v 5.785497 -1.519858 -0.299457
v 5.406291 -2.139806 -0.441098
v 5.504826 -1.031499 -0.412820
v 4.894716 -1.651938 -0.718202
v 4.804874 -2.547190 -0.297801
v 4.828962 -2.789851 0.299619
v 4.303811 -2.289718 -0.410792
v 4.078253 -2.571240 0.329332
v 4.842727 -2.581375 0.910131
v 5.452650 -2.181674 1.038309
v 4.350171 -2.331587 1.068615
v 4.960281 -1.711148 1.373997
v 5.823352 -1.554042 0.908475
v 6.029978 -1.531629 0.297591
v 5.551188 -1.073367 1.066587
v 5.776745 -0.791846 0.326463
v 5.568700 -2.293653 0.290481
v 1.947407 1.322478 -0.098741
v 2.142212 0.596969 -0.261358
v 2.214238 -0.074092 -0.146626
v 1.961171 1.530952 0.511770
v 1.905002 0.824611 0.493541
v 2.007612 -0.096506 0.464257
v 1.985260 1.288292 1.109191
v 2.188573 0.555100 1.218049
v 2.252091 -0.108279 1.061305
v 3.731374 0.632049 -0.292002
v 3.121289 0.041095 -0.573714
v 2.559796 -0.595331 -0.290023
v 3.968811 0.867536 0.430081
v 2.336767 -0.842241 0.432837
v 3.776598 0.591207 1.151143
v 3.184288 -0.015800 1.436632
v 2.605021 -0.636173 1.153122
v -5.461221 -1.600404 1.053663
v -5.082011 -2.231740 1.129904
v -5.180549 -1.126525 1.217319
v -4.570438 -1.775420 1.456357
v -4.480595 -2.621968 0.944919
v -4.504684 -2.801025 0.325457
v -3.979533 -2.377678 1.084135
v -3.753975 -2.580509 0.318696
v -4.518448 -2.530041 -0.259995
v -5.128372 -2.119156 -0.345807
v -4.025893 -2.265093 -0.391576
v -4.636003 -1.616201 -0.630614
v -5.499074 -1.508480 -0.151251
v -5.705700 -1.549872 0.458641
v -5.226909 -1.013940 -0.258392
v -5.452466 -0.811110 0.507047
v -5.244422 -2.308484 0.386273
v -1.623129 1.247366 1.150348
v -1.817935 0.508858 1.236446
v -1.889960 -0.146586 1.052383
v -1.636894 1.518350 0.564896
v -1.580725 0.813957 0.509392
v -1.683334 -0.105195 0.442492
v -1.660982 1.339292 -0.054565
v -1.864296 0.621443 -0.239265
v -1.927813 -0.054662 -0.152530
v -3.407096 0.540552 1.270580
v -2.797011 -0.076549 1.489151
v -2.235519 -0.679934 1.140661
v -3.644532 0.850033 0.576981
v -2.012489 -0.850141 0.395999
v -3.452320 0.650378 -0.168959
v -2.860010 0.076441 -0.516171
v -2.280743 -0.570108 -0.298879
v 3.726792 8.316278 0.896823
v 3.595826 8.256877 0.882264
v 3.796927 8.426297 1.100031
v 3.670691 8.370852 1.143426
v 3.666566 8.447528 0.903087
v 3.535600 8.388125 0.888528
v 3.731552 8.551675 1.070047
v 3.605316 8.496232 1.113442
v 3.741387 8.337907 1.026630
v 3.610470 8.277884 1.024084
v 3.680679 8.468853 1.025262
v 3.549762 8.408832 1.022716
v 4.204790 8.544318 1.168361
v 4.141592 8.580449 1.293236
v 4.108992 8.625237 1.096470
v 4.045797 8.661367 1.221345
v 4.499240 8.545094 0.935685
v 4.589420 8.655637 0.958941
v 4.427269 8.624256 0.838492
v 4.517449 8.734797 0.861748
v 4.656408 8.397423 0.579280
v 4.743361 8.511000 0.600070
v 4.545108 8.486794 0.556530
v 4.632061 8.600372 0.577320
v 4.334766 7.636274 0.898959
v 4.203801 7.576870 0.884400
v 4.404901 7.746291 1.102167
v 4.278664 7.690846 1.145562
v 4.274540 7.767522 0.905223
v 4.143573 7.708121 0.890664
v 4.339527 7.871672 1.072183
v 4.213290 7.816227 1.115578
v 4.349360 7.657902 1.028766
v 4.218445 7.597878 1.026220
v 4.288652 7.788848 1.027398
v 4.157735 7.728825 1.024852
v 4.548513 7.946895 1.133999
v 4.485319 7.983025 1.258874
v 4.452717 8.027813 1.062108
v 4.389521 8.063942 1.186983
v 4.879625 8.159427 1.060527
v 4.969805 8.269970 1.083784
v 4.807655 8.238588 0.963334
v 4.897836 8.349131 0.986591
v 5.036794 8.011754 0.704122
v 5.123747 8.125332 0.724913
v 4.925494 8.101128 0.681372
v 5.012447 8.214705 0.702162
v -4.130399 7.948054 0.897980
v -4.042668 7.834084 0.883593
v -4.252916 7.991959 1.101395
v -4.169944 7.881909 1.144962
v -4.244379 7.859438 0.904934
v -4.156649 7.745467 0.890547
v -4.360117 7.899532 1.072096
v -4.277144 7.789486 1.115662
v -4.154394 7.957816 1.027824
v -4.066035 7.844084 1.025447
v -4.267993 7.868771 1.027147
v -4.179634 7.755038 1.024770
v -4.480946 8.086020 1.133562
v -4.501286 8.016722 1.258768
v -4.538033 7.973985 1.062277
v -4.558374 7.904684 1.187483
v -4.763783 8.359480 1.059899
v -4.891944 8.422086 1.083306
v -4.824686 8.270940 0.963232
v -4.952849 8.333546 0.986639
v -4.657051 8.544873 0.702448
v -4.787438 8.603633 0.723410
v -4.718676 8.416000 0.680383
v -4.849062 8.474759 0.701346
v -3.607424 8.695405 0.895632
v -3.519694 8.581436 0.881245
v -3.729943 8.739312 1.099048
v -3.646970 8.629263 1.142614
v -3.721405 8.606791 0.902587
v -3.633675 8.492819 0.888200
v -3.837143 8.646885 1.069748
v -3.754171 8.536839 1.113315
v -3.631420 8.705169 1.025476
v -3.543061 8.591436 1.023099
v -3.745019 8.616122 1.024799
v -3.656659 8.502391 1.022422
v -3.957972 8.833373 1.131215
v -3.978311 8.764074 1.256421
v -4.015060 8.721337 1.059930
v -4.035399 8.652037 1.185136
v -4.240808 9.106833 1.057552
v -4.368970 9.169438 1.080959
v -4.301712 9.018293 0.960885
v -4.429874 9.080898 0.984292
v -4.134077 9.292227 0.700100
v -4.264463 9.350986 0.721063
v -4.195702 9.163352 0.678036
v -4.326088 9.222112 0.698998
vt 0.873150 0.669920
vt 0.873150 0.591173
vt 0.946930 0.591028
vt 0.946930 0.669775
vt 0.537412 0.937222
vt 0.537418 0.901750
vt 0.570773 0.901750
vt 0.570768 0.937222
vt 0.987720 0.868140
vt 0.987720 0.964883
vt 0.948151 0.898348
vt 0.961296 0.823708
vt 0.529456 0.883543
vt 0.517176 0.791954
vt 0.590961 0.791954
vt 0.578730 0.883543
vt 0.204272 0.982204
vt 0.190660 0.910721
vt 0.231637 0.844598
vt 0.231637 0.938047
vt 0.934122 0.526242
vt 0.884852 0.526339
vt 0.313486 0.396906
vt 0.319606 0.388857
vt 0.319606 0.437203
vt 0.313486 0.429633
vt 0.529448 0.935945
vt 0.578722 0.935945
vt 0.483563 0.774180
vt 0.527541 0.769520
vt 0.532066 0.791954
vt 0.475538 0.787391
vt 0.562353 0.744909
vt 0.572037 0.751541
vt 0.437557 0.811763
vt 0.477167 0.791954
vt 0.474596 0.814255
vt 0.443165 0.823648
vt 0.517176 0.811974
vt 0.506898 0.823817
vt 0.555805 0.697304
vt 0.572036 0.689826
vt 0.529717 0.656253
vt 0.532066 0.642960
vt 0.174203 0.765216
vt 0.170117 0.709453
vt 0.189491 0.711569
vt 0.189495 0.755293
vt 0.175657 0.660647
vt 0.190660 0.671589
vt 0.487571 0.660939
vt 0.475538 0.638397
vt 0.450927 0.685524
vt 0.435568 0.678810
vt 0.517176 0.919655
vt 0.477167 0.939655
vt 0.474596 0.919823
vt 0.506898 0.910012
vt 0.437557 0.919444
vt 0.443165 0.909843
vt 0.459307 0.733155
vt 0.435568 0.740525
vt 0.933155 0.937829
vt 0.933337 0.882192
vt 0.948152 0.885501
vt 0.945989 0.929132
vt 0.935772 0.831879
vt 0.948084 0.844323
vt 0.507997 0.715236
vt 0.473706 0.867466
vt 0.435568 0.866935
vt 0.513624 0.867143
vt 0.878477 0.876948
vt 0.882779 0.823767
vt 0.879961 0.937829
vt 0.312778 0.901570
vt 0.313630 0.943249
vt 0.259926 0.942560
vt 0.258284 0.911102
vt 0.313630 0.845211
vt 0.259926 0.866872
vt 0.108088 0.711269
vt 0.117092 0.659804
vt 0.115526 0.772380
vt 0.135659 0.807172
vt 0.190660 0.793599
vt 0.423384 0.843957
vt 0.420569 0.899842
vt 0.367668 0.883709
vt 0.370948 0.840371
vt 0.428755 0.845430
vt 0.426029 0.901297
vt 0.428755 0.944704
vt 0.423384 0.943433
vt 0.110102 0.772880
vt 0.102475 0.711855
vt 0.111665 0.660534
vt 0.319085 0.844083
vt 0.318340 0.900383
vt 0.319085 0.941923
vt 0.874771 0.937538
vt 0.873150 0.876736
vt 0.877584 0.823708
vt 0.975890 0.477154
vt 0.951864 0.450653
vt 0.953186 0.418362
vt 0.982315 0.461543
vt 0.760663 0.496054
vt 0.761901 0.450900
vt 0.778062 0.428363
vt 0.788549 0.479791
vt 0.656445 0.625354
vt 0.630529 0.591288
vt 0.649585 0.569347
vt 0.664262 0.599597
vt 0.247068 0.976727
vt 0.231637 0.947743
vt 0.240782 0.934534
vt 0.254594 0.951083
vt 0.717449 0.435827
vt 0.727435 0.394618
vt 0.670668 0.426373
vt 0.666325 0.398324
vt 0.233778 0.891942
vt 0.245095 0.890484
vt 0.248893 0.844598
vt 0.254594 0.851969
vt 0.648926 0.466015
vt 0.630529 0.437309
vt 0.284161 0.679901
vt 0.305726 0.659804
vt 0.314364 0.670057
vt 0.290517 0.699582
vt 0.271780 0.827922
vt 0.297109 0.796851
vt 0.295168 0.823065
vt 0.275814 0.844083
vt 0.776475 0.568588
vt 0.762847 0.608805
vt 0.749434 0.586350
vt 0.753898 0.553123
vt 0.575993 0.739585
vt 0.572037 0.690437
vt 0.589704 0.692010
vt 0.589231 0.752260
vt 0.576379 0.646616
vt 0.589704 0.638397
vt 0.711742 0.628898
vt 0.707631 0.596229
vt 0.650003 0.500196
vt 0.704237 0.483674
vt 0.692139 0.526242
vt 0.741236 0.524723
vt 0.701132 0.554763
vt 0.654644 0.542452
vt 0.695851 0.526242
vt 0.739816 0.529205
vt 0.721779 0.722725
vt 0.661331 0.712847
vt 0.775880 0.695031
vt 0.291238 0.708394
vt 0.315164 0.678564
vt 0.315164 0.772776
vt 0.258969 0.749995
vt 0.729033 0.387027
vt 0.667820 0.390698
vt 0.684547 0.328003
vt 0.740483 0.327580
vt 0.779785 0.420798
vt 0.788549 0.355963
vt 0.953851 0.409694
vt 0.925888 0.380102
vt 0.938912 0.305491
vt 0.960567 0.326407
vt 0.983019 0.453068
vt 0.983019 0.361823
vt 0.925301 0.388725
vt 0.258284 0.741343
vt 0.776475 0.702684
vt 0.722534 0.730686
vt 0.662159 0.720464
vt 0.432769 0.618972
vt 0.495623 0.609089
vt 0.517946 0.638397
vt 0.431986 0.636651
vt 0.550855 0.578663
vt 0.584127 0.601939
vt 0.598464 0.527694
vt 0.630529 0.527277
vt 0.126091 0.330742
vt 0.211167 0.342539
vt 0.208163 0.386160
vt 0.130274 0.379386
vt 0.270649 0.388938
vt 0.259480 0.426190
vt 0.823931 0.816792
vt 0.793344 0.757131
vt 0.822001 0.721015
vt 0.849792 0.777366
vt 0.195912 0.433553
vt 0.131955 0.412883
vt 0.242262 0.469709
vt 0.842648 0.695110
vt 0.873149 0.729845
vt 0.581500 0.467253
vt 0.630529 0.445716
vt 0.549742 0.410330
vt 0.592490 0.377137
vt 0.503657 0.360438
vt 0.519383 0.327694
vt 0.776475 0.678761
vt 0.832497 0.672396
vt 0.780210 0.602700
vt 0.837146 0.594307
vt 0.851540 0.305491
vt 0.849270 0.368052
vt 0.790558 0.364986
vt 0.788985 0.309128
vt 0.860863 0.665000
vt 0.867238 0.602205
vt 0.854105 0.526242
vt 0.873149 0.543923
vt 0.436056 0.375291
vt 0.431698 0.327580
vt 0.380825 0.405718
vt 0.365516 0.364038
vt 0.337961 0.451716
vt 0.320839 0.437068
vt 0.851220 0.454152
vt 0.788549 0.434291
vt 0.851540 0.526242
vt 0.788803 0.491285
vt 0.874809 0.809682
vt 0.873862 0.754714
vt 0.935599 0.770788
vt 0.939462 0.823708
vt 0.167552 0.659805
vt 0.094991 0.657420
vt 0.126644 0.630947
vt 0.175645 0.643409
vt 0.047964 0.620736
vt 0.087515 0.600424
vt 0.026471 0.549753
vt 0.058259 0.551840
vt 0.350127 0.520293
vt 0.322099 0.526090
vt 0.381885 0.577217
vt 0.360138 0.594669
vt 0.873150 0.669920
vt 0.939462 0.688327
vt 0.000000 0.422386
vt 0.048477 0.360754
vt 0.098840 0.407384
vt 0.050286 0.469113
vt 0.089087 0.493853
vt 0.126336 0.441867
vt 0.407438 0.481210
vt 0.473453 0.444843
vt 0.445309 0.549899
vt 0.511490 0.513442
vt 0.169768 0.493330
vt 0.216795 0.530014
vt 0.270649 0.521095
vt 0.267417 0.551919
vt 0.136997 0.541252
vt 0.184025 0.577936
vt 0.230168 0.603904
vt 0.227034 0.316042
vt 0.255797 0.298487
vt 0.279377 0.316674
vt 0.235496 0.330742
vt 0.279468 0.273307
vt 0.307825 0.286413
vt 0.298044 0.240504
vt 0.320839 0.239957
vt 0.296923 0.457317
vt 0.298818 0.412458
vt 0.312368 0.405604
vt 0.308198 0.451614
vt 0.299935 0.372168
vt 0.313486 0.365314
vt 0.300275 0.336445
vt 0.311550 0.330742
vt 0.544721 0.000000
vt 0.591479 0.009047
vt 0.591998 0.023521
vt 0.561863 0.014274
vt 0.623024 0.035963
vt 0.612813 0.041282
vt 0.639357 0.080748
vt 0.624308 0.067555
vt 0.722164 0.249578
vt 0.736333 0.271000
vt 0.736333 0.324230
vt 0.720777 0.288774
vt 0.303551 0.154856
vt 0.216919 0.065239
vt 0.253003 0.014819
vt 0.320194 0.086968
vt 0.148666 0.034761
vt 0.153430 0.000000
vt 0.886446 0.216756
vt 0.872118 0.164156
vt 0.896153 0.171848
vt 0.902333 0.222679
vt 0.876515 0.067031
vt 0.902222 0.063760
vt 0.909410 0.000000
vt 0.930512 0.001607
vt 0.929939 0.171585
vt 0.930512 0.237292
vt 0.639357 0.219983
vt 0.573077 0.307584
vt 0.547099 0.278207
vt 0.605390 0.202447
vt 0.474876 0.327580
vt 0.479451 0.312986
vt 0.090002 0.070509
vt 0.071896 0.027909
vt 0.047448 0.115776
vt 0.021280 0.081753
vt 0.019650 0.172003
vt 0.000000 0.163213
vt 0.984503 0.460922
vt 0.983019 0.375998
vt 1.000000 0.372221
vt 0.997820 0.440939
vt 0.983019 0.305491
vt 1.000000 0.316307
vt 0.059837 0.899936
vt 0.062590 0.847188
vt 0.076895 0.855709
vt 0.076895 0.907356
vt 0.403501 0.321058
vt 0.431043 0.297470
vt 0.358990 0.283080
vt 0.393573 0.265499
vt 0.339952 0.212457
vt 0.365847 0.216054
vt 0.047662 0.245288
vt 0.018736 0.264023
vt 0.138207 0.330742
vt 0.093070 0.328574
vt 0.274745 0.503528
vt 0.285041 0.455257
vt 0.292842 0.524961
vt 0.320839 0.192824
vt 0.328516 0.090627
vt 0.347851 0.115412
vt 0.395370 0.018328
vt 0.420999 0.033670
vt 0.309438 0.508148
vt 0.398060 0.151041
vt 0.454618 0.082706
vt 0.472570 0.022063
vt 0.509935 0.046559
vt 0.094449 0.188327
vt 0.151788 0.127332
vt 0.166475 0.255186
vt 0.222066 0.196051
vt 0.170609 0.318278
vt 0.201231 0.270437
vt 0.242594 0.226437
vt 0.293985 0.187037
vt 0.556795 0.072937
vt 0.512671 0.123534
vt 0.595960 0.106354
vt 0.567138 0.170008
vt 0.621115 0.136971
vt 0.456909 0.190456
vt 0.513089 0.238392
vt 0.293221 0.577908
vt 0.313486 0.550817
vt 0.270649 0.537402
vt 0.911368 0.296394
vt 0.926524 0.301141
vt 0.904618 0.292770
vt 0.315373 0.152780
vt 0.698161 0.894958
vt 0.698161 0.843318
vt 0.771842 0.846541
vt 0.771842 0.898182
vt 0.904302 0.305491
vt 0.903416 0.329043
vt 0.870072 0.329043
vt 0.870958 0.305491
vt 0.624436 0.863174
vt 0.624436 0.984183
vt 0.592708 0.936502
vt 0.603248 0.831333
vt 0.911421 0.348976
vt 0.925300 0.470801
vt 0.851540 0.470801
vt 0.862164 0.348976
vt 0.010658 0.990711
vt 0.000000 0.893084
vt 0.032083 0.847187
vt 0.032083 0.960060
vt 0.766693 0.741256
vt 0.717489 0.739103
vt 0.759657 0.732143
vt 0.726349 0.730686
vt 0.912730 0.314184
vt 0.622331 0.841967
vt 0.607988 0.820412
vt 0.190660 0.792974
vt 0.205728 0.707216
vt 0.245427 0.707216
vt 0.258284 0.792974
vt 0.630529 0.685709
vt 0.630529 0.771688
vt 0.609110 0.804656
vt 0.594043 0.741868
vt 0.630529 0.801559
vt 0.642492 0.741684
vt 0.682196 0.741684
vt 0.698161 0.801559
vt 0.948571 0.559370
vt 0.963330 0.504690
vt 0.984311 0.538992
vt 0.984311 0.617800
vt 0.637653 0.915203
vt 0.639434 0.867968
vt 0.690728 0.867968
vt 0.688948 0.915203
vt 0.656092 0.730686
vt 0.666744 0.730686
vt 0.947652 0.625605
vt 0.946930 0.608236
vt 0.978220 0.659391
vt 0.974758 0.669920
vt 0.635383 0.851009
vt 0.694593 0.851009
vt 0.621289 0.638397
vt 0.624650 0.646701
vt 0.592708 0.695868
vt 0.593618 0.680990
vt 0.197389 0.844599
vt 0.193841 0.834852
vt 0.253044 0.834852
vt 0.248677 0.844599
vt 0.316556 0.518344
vt 0.316556 0.528687
vt 0.313486 0.524078
vt 0.313486 0.523297
vt 0.220132 0.669518
vt 0.230782 0.669518
vt 0.736333 0.322200
vt 0.736333 0.290865
vt 0.755352 0.293288
vt 0.755352 0.301694
vt 0.623569 0.811568
vt 0.617822 0.820413
vt 0.225691 0.661097
vt 0.225723 0.661829
vt 0.224919 0.661829
vt 0.224886 0.661097
vt 0.219706 0.659805
vt 0.230357 0.659805
vt 0.776475 0.937696
vt 0.790194 0.872102
vt 0.829909 0.872102
vt 0.844126 0.937696
vt 0.984724 0.702061
vt 0.984724 0.772696
vt 0.959706 0.821274
vt 0.942108 0.784809
vt 0.102476 0.834410
vt 0.116422 0.807172
vt 0.156140 0.807172
vt 0.170131 0.834410
vt 0.320934 0.870585
vt 0.340233 0.840371
vt 0.367668 0.887319
vt 0.367668 0.950556
vt 0.110649 0.957772
vt 0.110660 0.886570
vt 0.161971 0.886570
vt 0.161960 0.957772
vt 0.863210 0.470801
vt 0.863210 0.510174
vt 0.851540 0.495559
vt 0.851540 0.484996
vt 0.322832 0.925232
vt 0.320839 0.909833
vt 0.361754 0.979845
vt 0.358277 0.985884
vt 0.106698 0.871846
vt 0.165928 0.871846
vt 0.972291 0.669920
vt 0.976771 0.674231
vt 0.939462 0.746675
vt 0.939970 0.732679
vt 0.313486 0.334353
vt 0.319646 0.330742
vt 0.319646 0.388857
vt 0.313486 0.384698
vt 0.780860 0.963153
vt 0.840087 0.963153
vt 0.804707 0.820274
vt 0.815362 0.820274
vt 0.810412 0.824942
vt 0.809608 0.824942
vt 0.804678 0.835113
vt 0.815333 0.835113
vt 0.790303 0.816792
vt 0.830018 0.816792
vt 0.810410 0.826062
vt 0.809605 0.826062
vt 0.970475 0.182095
vt 0.951976 0.160926
vt 0.950179 0.131719
vt 0.973678 0.166834
vt 0.334811 0.683313
vt 0.349500 0.717850
vt 0.345718 0.743465
vt 0.320839 0.708904
vt 0.973678 0.083358
vt 0.950854 0.048651
vt 0.945896 0.006398
vt 0.956536 0.000000
vt 0.931570 0.025587
vt 0.935842 0.011408
vt 0.383451 0.713585
vt 0.389627 0.751715
vt 0.415739 0.705893
vt 0.426844 0.728821
vt 0.356431 0.821423
vt 0.399183 0.829388
vt 0.399354 0.840370
vt 0.364103 0.834267
vt 0.435568 0.807138
vt 0.430341 0.822309
vt 0.415937 0.668669
vt 0.435568 0.688194
vt 0.572037 0.775356
vt 0.575494 0.752260
vt 0.586378 0.758841
vt 0.586378 0.790447
vt 0.844915 0.935621
vt 0.868757 0.903126
vt 0.859130 0.954636
vt 0.846902 0.953758
vt 0.003372 0.791376
vt 0.022155 0.753866
vt 0.026893 0.844135
vt 0.017667 0.840017
vt 0.308444 0.649404
vt 0.302819 0.614083
vt 0.317322 0.612813
vt 0.320729 0.657269
vt 0.308444 0.584605
vt 0.320729 0.577908
vt 0.063507 0.741629
vt 0.061145 0.843782
vt 0.102476 0.757513
vt 0.094123 0.847189
vt 0.402549 0.644501
vt 0.374589 0.669735
vt 0.367297 0.638397
vt 0.336310 0.656458
vt 0.036903 0.853892
vt 0.048866 0.847188
vt 0.044425 0.889407
vt 0.032083 0.885932
vt 0.059837 0.856499
vt 0.059837 0.891955
vt 0.046494 0.927751
vt 0.034967 0.919671
vt 0.057900 0.922279
vt 0.062584 0.659805
vt 0.102476 0.677612
vt 0.020137 0.673874
vt 0.000000 0.711578
vt 0.844126 0.851063
vt 0.868757 0.816792
vt 0.930512 0.107611
vt 0.850947 0.249578
vt 0.864755 0.263383
vt 0.864755 0.299210
vt 0.847975 0.271313
vt 0.769865 0.030637
vt 0.780400 0.058813
vt 0.775802 0.088700
vt 0.756007 0.063831
vt 0.739610 0.142833
vt 0.756007 0.169249
vt 0.742415 0.228421
vt 0.735189 0.246371
vt 0.991493 0.051640
vt 0.974157 0.034723
vt 0.976545 0.013195
vt 0.985446 0.000000
vt 0.813708 0.053116
vt 0.818010 0.095623
vt 0.847437 0.052153
vt 0.857905 0.080544
vt 0.787766 0.198372
vt 0.828978 0.205543
vt 0.831390 0.230197
vt 0.796636 0.221414
vt 0.867857 0.190414
vt 0.863673 0.214753
vt 0.851968 0.022480
vt 0.872118 0.052297
vt 0.771620 0.315932
vt 0.758032 0.323690
vt 0.755352 0.306485
vt 0.771620 0.290865
vt 0.170671 0.941410
vt 0.188705 0.915617
vt 0.181995 0.975793
vt 0.172740 0.966968
vt 0.643921 0.171779
vt 0.659148 0.144650
vt 0.667841 0.247891
vt 0.659931 0.230283
vt 0.663038 0.012913
vt 0.696457 0.000000
vt 0.696862 0.020810
vt 0.655861 0.032696
vt 0.730386 0.011393
vt 0.738345 0.030833
vt 0.699176 0.134577
vt 0.701557 0.249578
vt 0.842879 0.008784
vt 0.810044 0.017819
vt 0.808125 0.000000
vt 0.775842 0.015444
vt 0.799232 0.248734
vt 0.790015 0.231994
vt 0.832698 0.244259
vt 0.832961 0.247770
vt 0.872118 0.223837
vt 0.866269 0.242073
vt 0.639357 0.059527
vt 0.170131 0.834850
vt 0.188705 0.807172
vt 0.991493 0.159432
vt 0.973678 0.141387
vt 0.756007 0.056893
vt 0.660914 0.310125
vt 0.663468 0.317345
vt 0.655946 0.315529
vt 0.655905 0.307766
vt 0.289535 0.579969
vt 0.289557 0.587726
vt 0.281531 0.607324
vt 0.275952 0.602215
vt 0.292949 0.585138
vt 0.295444 0.577908
vt 0.302819 0.579349
vt 0.299688 0.586365
vt 0.313486 0.556276
vt 0.313486 0.548694
vt 0.315965 0.550514
vt 0.315965 0.558097
vt 0.292067 0.587029
vt 0.299219 0.588362
vt 0.313486 0.558143
vt 0.316452 0.558098
vt 0.316452 0.565509
vt 0.313487 0.565148
vt 0.313486 0.468508
vt 0.315990 0.465874
vt 0.316636 0.471882
vt 0.314164 0.473740
vt 0.319505 0.570175
vt 0.316638 0.568179
vt 0.316636 0.563947
vt 0.319505 0.565196
vt 0.668055 0.308743
vt 0.671241 0.315741
vt 0.270649 0.605128
vt 0.286714 0.633434
vt 0.280479 0.634695
vt 0.658413 0.309374
vt 0.644891 0.287020
vt 0.650225 0.289852
vt 0.314473 0.442537
vt 0.316636 0.437202
vt 0.639358 0.292154
vt 0.300019 0.643084
vt 0.297062 0.647578
vt 0.648940 0.262527
vt 0.651958 0.267773
vt 0.289694 0.628195
vt 0.658209 0.268950
vt 0.316563 0.512337
vt 0.316563 0.518343
vt 0.313486 0.513557
vt 0.313486 0.507551
vt 0.665402 0.249578
vt 0.668239 0.254732
vt 0.302819 0.637938
vt 0.671241 0.259161
vt 0.710840 0.298885
vt 0.712916 0.306255
vt 0.705529 0.303949
vt 0.705995 0.296202
vt 0.682925 0.252022
vt 0.683452 0.259760
vt 0.682243 0.267281
vt 0.676343 0.262547
vt 0.686668 0.256956
vt 0.688687 0.249578
vt 0.696140 0.250536
vt 0.693474 0.257742
vt 0.319115 0.548952
vt 0.319115 0.556534
vt 0.316636 0.554714
vt 0.316636 0.547131
vt 0.685912 0.258900
vt 0.693135 0.259764
vt 0.316636 0.556580
vt 0.319602 0.556535
vt 0.319602 0.563946
vt 0.316637 0.563586
vt 0.316392 0.479012
vt 0.313486 0.481194
vt 0.313846 0.475161
vt 0.316592 0.473740
vt 0.316355 0.571736
vt 0.313488 0.569741
vt 0.313486 0.565509
vt 0.316355 0.566758
vt 0.718055 0.297970
vt 0.720777 0.305162
vt 0.671241 0.265799
vt 0.679776 0.294641
vt 0.673636 0.296307
vt 0.708393 0.297970
vt 0.701997 0.287241
vt 0.707135 0.290415
vt 0.316592 0.491858
vt 0.313574 0.496759
vt 0.696140 0.292002
vt 0.693682 0.303404
vt 0.691023 0.308083
vt 0.698303 0.261425
vt 0.700972 0.266855
vt 0.682408 0.289221
vt 0.707132 0.268436
vt 0.316563 0.501545
vt 0.316563 0.507551
vt 0.313486 0.502768
vt 0.313486 0.496759
vt 0.715577 0.249578
vt 0.718071 0.254906
vt 0.696140 0.298088
vt 0.720777 0.259521
vt 0.782982 0.287412
vt 0.784392 0.290864
vt 0.776278 0.288507
vt 0.777327 0.284317
vt 0.803021 0.258601
vt 0.804071 0.262771
vt 0.801226 0.271239
vt 0.794032 0.270110
vt 0.808150 0.259408
vt 0.809550 0.255998
vt 0.816868 0.257847
vt 0.814866 0.260963
vt 0.316171 0.548694
vt 0.313486 0.545580
vt 0.313486 0.538913
vt 0.316171 0.542027
vt 0.780267 0.280981
vt 0.787002 0.279489
vt 0.790116 0.285773
vt 0.812337 0.249578
vt 0.820052 0.251577
vt 0.804223 0.251850
vt 0.776201 0.277570
vt 0.792130 0.288937
vt 0.319980 0.489299
vt 0.316636 0.485143
vt 0.316872 0.463251
vt 0.319980 0.467973
vt 0.771419 0.274339
vt 0.773395 0.269051
vt 0.792130 0.264783
vt 0.764232 0.275420
vt 0.767119 0.255406
vt 0.770432 0.249578
vt 0.787913 0.249859
vt 0.788643 0.254464
vt 0.770668 0.260822
vt 0.801798 0.285220
vt 0.798230 0.290583
vt 0.316636 0.512178
vt 0.320201 0.508212
vt 0.320201 0.522729
vt 0.316722 0.527125
vt 0.319666 0.527125
vt 0.319666 0.533373
vt 0.316636 0.537350
vt 0.316636 0.531102
vt 0.792130 0.260074
vt 0.819250 0.284871
vt 0.815742 0.290430
vt 0.798557 0.279347
vt 0.820052 0.280247
vt 0.755083 0.287412
vt 0.756494 0.290864
vt 0.748379 0.288507
vt 0.749428 0.284317
vt 0.830943 0.258601
vt 0.831994 0.262771
vt 0.829149 0.271239
vt 0.821954 0.270110
vt 0.836072 0.259408
vt 0.837473 0.255998
vt 0.844790 0.257847
vt 0.842788 0.260963
vt 0.319321 0.547131
vt 0.316636 0.544017
vt 0.316636 0.537350
vt 0.319321 0.540465
vt 0.752368 0.280981
vt 0.759103 0.279489
vt 0.762217 0.285773
vt 0.840260 0.249578
vt 0.847975 0.251577
vt 0.832145 0.251850
vt 0.748302 0.277570
vt 0.764231 0.288937
vt 0.319980 0.463251
vt 0.316636 0.459095
vt 0.316872 0.437203
vt 0.319980 0.441925
vt 0.743520 0.274339
vt 0.745496 0.269051
vt 0.820052 0.264783
vt 0.736333 0.275419
vt 0.739220 0.255406
vt 0.742533 0.249578
vt 0.760014 0.249859
vt 0.760744 0.254464
vt 0.742769 0.260822
vt 0.829720 0.285219
vt 0.826153 0.290583
vt 0.316636 0.493265
vt 0.320201 0.489299
vt 0.320201 0.503816
vt 0.316722 0.508212
vt 0.313486 0.538913
vt 0.313486 0.532665
vt 0.316516 0.528687
vt 0.316516 0.534936
vt 0.764231 0.260074
vt 0.847172 0.284871
vt 0.843664 0.290430
vt 0.826479 0.279347
vt 0.847975 0.280247
vn -0.8245 -0.0840 0.5596
vn 0.0269 0.7817 0.6231
vn 0.0796 0.8170 -0.5710
vn -0.7719 -0.0486 -0.6338
vn 0.8256 -0.3090 0.4720
vn 0.2739 -0.8604 0.4298
vn 0.3128 -0.8342 -0.4541
vn 0.8647 -0.2827 -0.4151
vn -0.1891 -0.6970 -0.6917
vn 0.7470 0.2440 -0.6184
vn -0.2473 -0.7361 0.6300
vn 0.6892 0.2051 0.6949
vn -0.4197 -0.7548 0.5041
vn 0.1790 -0.7750 0.6061
vn 0.0422 -0.2169 0.9752
vn -0.6568 -0.3668 0.6587
vn 0.7059 -0.4861 0.5152
vn 0.7394 -0.0336 0.6724
vn -0.7614 -0.0033 0.6482
vn -0.0508 0.1724 0.9837
vn -0.1729 0.6957 0.6972
vn -0.7483 0.4136 0.5186
vn 0.6687 0.3380 0.6623
vn 0.4711 0.7046 0.5306
vn 0.8127 -0.5821 -0.0239
vn 0.9978 0.0662 0.0027
vn 0.7059 -0.4422 -0.5533
vn 0.7394 0.0216 -0.6729
vn 0.9083 0.4180 0.0172
vn 0.5360 0.8435 0.0346
vn 0.6687 0.3912 -0.6323
vn 0.4711 0.7458 -0.4710
vn 0.1790 -0.7227 -0.6676
vn 0.0422 -0.1362 -0.9898
vn -0.4197 -0.7109 -0.5643
vn -0.6568 -0.3116 -0.6866
vn -0.0508 0.2524 -0.9662
vn -0.1729 0.7505 -0.6378
vn -0.7614 0.0499 -0.6463
vn -0.7483 0.4547 -0.4830
vn -0.4617 -0.8863 -0.0364
vn -0.9200 -0.3915 -0.0161
vn -0.9993 -0.0373 -0.0015
vn -0.8597 0.5104 0.0209
vn 0.2323 -0.9718 -0.0399
vn -0.2323 0.9718 0.0399
vn -0.9816 -0.1909 -0.0078
vn -0.7297 -0.1678 0.6628
vn -0.7297 -0.1129 -0.6743
vn -0.0053 0.0633 -0.9980
vn 0.7144 0.2317 -0.6601
vn 0.9619 0.2729 0.0112
vn 0.7144 0.1768 0.6769
vn -0.0053 -0.0187 0.9998
vn -0.7196 -0.4662 0.5146
vn -0.2040 -0.7711 0.6032
vn -0.0482 -0.2194 0.9744
vn -0.7383 -0.0125 0.6744
vn 0.3927 -0.7712 0.5010
vn 0.6438 -0.3915 0.6574
vn -0.6547 0.3585 0.6655
vn 0.0580 0.1676 0.9841
vn 0.1971 0.6876 0.6988
vn -0.4443 0.7192 0.5341
vn 0.7609 -0.0297 0.6482
vn 0.7610 0.3886 0.5194
vn 0.4302 -0.9018 -0.0403
vn 0.9059 -0.4230 -0.0189
vn 0.3927 -0.7235 -0.5677
vn 0.6438 -0.3314 -0.6897
vn 0.9976 -0.0692 -0.0031
vn 0.8753 0.4831 0.0215
vn 0.7609 0.0281 -0.6482
vn 0.7610 0.4333 -0.4827
vn -0.2040 -0.7142 -0.6695
vn -0.0482 -0.1317 -0.9901
vn -0.7196 -0.4184 -0.5541
vn -0.7383 0.0476 -0.6728
vn 0.0580 0.2546 -0.9653
vn 0.1971 0.7471 -0.6348
vn -0.6547 0.4163 -0.6309
vn -0.4443 0.7639 -0.4679
vn -0.8308 -0.5560 -0.0248
vn -0.9951 0.0983 0.0044
vn -0.8931 0.4493 0.0201
vn -0.5058 0.8618 0.0385
vn -0.2647 -0.9633 -0.0430
vn 0.2647 0.9633 0.0430
vn -0.9522 0.3052 0.0136
vn -0.7061 0.1980 0.6798
vn -0.7061 0.2578 -0.6595
vn 0.0061 0.0667 -0.9977
vn 0.7236 -0.1343 -0.6770
vn 0.9747 -0.2232 -0.0099
vn 0.7236 -0.1940 0.6623
vn 0.0061 -0.0224 0.9997
vn -0.5676 -0.5565 0.6066
vn -0.2106 -0.6646 0.7169
vn -0.2500 -0.1071 0.9623
vn -0.6712 -0.0790 0.7370
vn 0.2111 -0.6643 0.7170
vn 0.2497 -0.1082 0.9622
vn 0.5675 -0.5573 0.6061
vn 0.6755 -0.0776 0.7333
vn -0.2477 0.3286 0.9114
vn -0.6184 0.2637 0.7403
vn 0.2491 0.3281 0.9112
vn 0.6319 0.2672 0.7276
vn -0.1885 0.4064 0.8940
vn -0.3887 0.3026 0.8702
vn 0.1877 0.4075 0.8937
vn 0.4206 0.3025 0.8553
vn 0.6891 -0.6858 0.2340
vn 0.9447 -0.1474 0.2929
vn 0.6978 -0.6819 -0.2191
vn 0.9658 -0.1519 -0.2102
vn 0.5813 -0.5625 -0.5879
vn 0.7226 -0.1470 -0.6754
vn 0.8155 0.2765 0.5085
vn 0.9499 0.2724 -0.1529
vn 0.7259 0.2440 -0.6430
vn 0.6334 0.5234 0.5699
vn 0.7504 0.6584 -0.0576
vn 0.6630 0.5409 -0.5175
vn 0.2095 -0.6746 -0.7078
vn 0.2512 -0.2060 -0.9457
vn -0.2106 -0.6740 -0.7081
vn -0.2518 -0.2060 -0.9456
vn -0.5814 -0.5622 -0.5882
vn -0.7227 -0.1465 -0.6754
vn 0.2636 0.2590 -0.9292
vn -0.2636 0.2593 -0.9291
vn -0.7255 0.2445 -0.6433
vn 0.2546 0.6960 -0.6713
vn -0.2546 0.6962 -0.6712
vn -0.6623 0.5419 -0.5173
vn -0.6977 -0.6822 -0.2185
vn -0.9639 -0.1542 -0.2170
vn -0.6889 -0.6858 0.2347
vn -0.9442 -0.1518 0.2925
vn -0.9469 0.2767 -0.1638
vn -0.8053 0.2858 0.5194
vn -0.7461 0.6630 -0.0619
vn -0.6266 0.5311 0.5702
vn -0.2399 -0.9357 -0.2585
vn 0.2390 -0.9359 -0.2586
vn -0.2417 -0.9328 0.2671
vn 0.2414 -0.9330 0.2668
vn -0.2220 0.7601 0.6107
vn 0.2216 0.7606 0.6102
vn -0.2654 0.9621 -0.0619
vn 0.2654 0.9621 -0.0620
vn -0.4788 -0.6233 0.6182
vn -0.1683 -0.7764 0.6073
vn -0.2349 -0.4001 0.8859
vn -0.6151 -0.2749 0.7389
vn 0.1680 -0.7763 0.6075
vn 0.2349 -0.4001 0.8859
vn 0.4777 -0.6230 0.6194
vn 0.6163 -0.2673 0.7408
vn -0.2503 0.0774 0.9651
vn -0.6195 0.0995 0.7786
vn 0.2622 0.1030 0.9595
vn 0.6181 0.1272 0.7757
vn -0.2109 0.4137 0.8856
vn -0.5002 0.3657 0.7848
vn 0.1939 0.4259 0.8838
vn 0.4860 0.4030 0.7755
vn 0.4667 -0.6192 0.6314
vn 0.6709 -0.6051 0.4286
vn 0.9310 -0.0373 0.3630
vn 0.6731 -0.0499 0.7379
vn 0.6807 -0.6680 -0.3006
vn 0.9606 -0.0445 -0.2744
vn 0.5351 -0.5371 -0.6521
vn 0.6738 -0.0570 -0.7367
vn 0.7911 0.4239 0.4410
vn 0.6576 0.2364 0.7152
vn 0.8373 0.4883 -0.2458
vn 0.6084 0.3506 -0.7119
vn 0.6247 0.6787 0.3861
vn 0.5242 0.4832 0.7012
vn 0.6301 0.7554 -0.1796
vn 0.5426 0.6008 -0.5870
vn 0.1990 -0.6375 -0.7443
vn 0.2579 -0.1928 -0.9467
vn -0.1990 -0.6375 -0.7443
vn -0.2469 -0.2147 -0.9449
vn -0.5351 -0.5371 -0.6521
vn -0.6681 -0.1035 -0.7368
vn 0.2413 0.2820 -0.9286
vn -0.2528 0.2690 -0.9293
vn -0.6225 0.3096 -0.7188
vn 0.2130 0.7270 -0.6527
vn -0.2135 0.7290 -0.6503
vn -0.5381 0.6074 -0.5843
vn -0.6807 -0.6680 -0.3006
vn -0.9561 -0.0921 -0.2781
vn -0.6712 -0.6054 0.4278
vn -0.9290 -0.0821 0.3609
vn -0.4677 -0.6200 0.6299
vn -0.6753 -0.0726 0.7339
vn -0.8609 0.4418 -0.2524
vn -0.8050 0.3912 0.4459
vn -0.6632 0.2110 0.7181
vn -0.6153 0.7690 -0.1733
vn -0.6115 0.6992 0.3703
vn -0.5243 0.4950 0.6929
vn -0.2323 -0.9142 -0.3320
vn 0.2323 -0.9142 -0.3320
vn -0.1973 -0.9696 0.1445
vn 0.1974 -0.9696 0.1447
vn -0.1247 -0.8994 0.4189
vn 0.1247 -0.8991 0.4195
vn -0.2289 0.6575 0.7178
vn -0.2402 0.8927 0.3812
vn 0.2275 0.6548 0.7208
vn 0.2596 0.8886 0.3780
vn -0.2230 0.9680 -0.1149
vn 0.2486 0.9613 -0.1185
vn 0.7958 -0.1000 -0.5972
vn -0.0225 0.7993 -0.6004
vn -0.0225 0.8031 0.5954
vn 0.7958 -0.0962 0.5979
vn -0.8567 -0.2635 -0.4433
vn -0.3260 -0.8367 -0.4400
vn -0.3260 -0.8339 0.4452
vn -0.8567 -0.2607 0.4450
vn 0.1906 -0.7229 0.6641
vn -0.7096 0.2551 0.6568
vn 0.1906 -0.7271 -0.6595
vn -0.7096 0.2510 -0.6584
vn -0.4560 0.5525 0.6976
vn -0.1184 0.7707 0.6260
vn -0.1184 0.7668 -0.6308
vn -0.4560 0.5481 -0.7011
vn 0.7603 -0.1183 -0.6387
vn 0.5559 -0.4783 -0.6798
vn 0.7603 -0.1143 0.6394
vn 0.5559 -0.4740 0.6828
vn -0.8426 -0.1707 -0.5108
vn -0.2474 -0.8245 -0.5088
vn -0.2474 -0.8213 0.5139
vn -0.8426 -0.1675 0.5119
vn 0.8389 0.2268 -0.4946
vn 0.8389 0.2300 0.4932
vn 0.2556 -0.6891 0.6781
vn -0.6642 0.3214 0.6749
vn 0.2556 -0.6934 -0.6737
vn -0.6642 0.3172 -0.6769
vn 0.8029 0.5303 -0.2721
vn 0.8029 0.5320 0.2688
vn 0.3061 0.8153 0.4914
vn 0.3061 0.8123 -0.4965
vn 0.6041 0.7487 -0.2728
vn 0.6041 0.7504 0.2681
vn 0.5072 0.5522 -0.6616
vn 0.1754 0.7817 -0.5984
vn 0.1201 0.7445 0.6567
vn 0.4457 0.5108 0.7351
vn -0.7916 -0.1048 0.6019
vn -0.6033 -0.4736 0.6417
vn -0.7354 -0.0670 -0.6743
vn -0.5433 -0.4332 -0.7190
vn 0.8121 -0.2175 0.5414
vn 0.1928 -0.8469 0.4955
vn 0.2378 -0.8167 -0.5258
vn 0.8571 -0.1873 -0.4799
vn -0.8504 0.2469 0.4645
vn -0.8070 0.2761 -0.5220
vn -0.2520 -0.6602 -0.7075
vn 0.7051 0.3125 -0.6365
vn -0.3115 -0.7002 0.6424
vn 0.6456 0.2725 0.7133
vn -0.7931 0.5544 0.2524
vn -0.7692 0.5704 -0.2879
vn -0.2526 0.8396 -0.4809
vn -0.2960 0.8104 0.5056
vn -0.5861 0.7647 0.2677
vn -0.5623 0.7807 -0.2725
vn 0.7915 -0.0498 -0.6091
vn 0.5163 -0.4939 -0.6996
vn 0.0963 -0.0935 -0.9909
vn 0.5708 0.3646 -0.7357
vn 0.0856 -0.7893 -0.6080
vn -0.3388 -0.5884 -0.7341
vn 0.3141 0.6202 -0.7187
vn -0.1197 0.0899 -0.9887
vn -0.6312 0.0736 -0.7721
vn -0.5376 0.5828 -0.6093
vn -0.5888 -0.3759 -0.7155
vn -0.7589 -0.2272 -0.6102
vn 0.1159 -0.9927 -0.0317
vn -0.5330 -0.8461 -0.0072
vn 0.1221 -0.8223 0.5558
vn -0.2933 -0.6295 0.7195
vn -0.8080 -0.5891 0.0086
vn -0.9589 -0.2830 0.0220
vn -0.5435 -0.4168 0.7286
vn -0.7197 -0.2627 0.6427
vn 0.5582 -0.5318 0.6369
vn 0.1579 -0.1492 0.9761
vn 0.8279 -0.0828 0.5546
vn 0.6164 0.3235 0.7179
vn -0.0575 0.0337 0.9978
vn -0.5816 0.0287 0.8130
vn 0.3596 0.5792 0.7316
vn -0.4974 0.5465 0.6737
vn 0.9970 -0.0696 -0.0332
vn 0.8203 0.5718 -0.0095
vn 0.5193 0.8545 0.0079
vn -0.5386 0.8416 0.0407
vn 0.7227 -0.6899 -0.0421
vn -0.9941 -0.1043 0.0282
vn -0.7915 -0.1131 0.6006
vn -0.5163 -0.5642 0.6443
vn -0.0963 -0.1963 0.9758
vn -0.5708 0.2859 0.7697
vn -0.0856 -0.8484 0.5224
vn 0.3388 -0.6617 0.6688
vn -0.3141 0.5419 0.7795
vn 0.1197 -0.0136 0.9927
vn 0.6312 -0.0073 0.7755
vn 0.5376 0.5161 0.6668
vn 0.5888 -0.4485 0.6724
vn 0.7589 -0.2896 0.5832
vn -0.1159 -0.9906 -0.0719
vn 0.5330 -0.8422 -0.0810
vn -0.1221 -0.7598 -0.6385
vn 0.2933 -0.5511 -0.7812
vn 0.8080 -0.5849 -0.0700
vn 0.9589 -0.2792 -0.0514
vn 0.5435 -0.3386 -0.7681
vn 0.7197 -0.1942 -0.6666
vn -0.5582 -0.4625 -0.6889
vn -0.1579 -0.0466 -0.9863
vn -0.8279 -0.0245 -0.5603
vn -0.6164 0.3966 -0.6803
vn 0.0575 0.1375 -0.9888
vn 0.5816 0.1133 -0.8055
vn -0.3596 0.6523 -0.6672
vn 0.4974 0.6138 -0.6131
vn -0.9970 -0.0727 0.0258
vn -0.8203 0.5676 0.0691
vn -0.5193 0.8507 0.0812
vn 0.5386 0.8412 0.0472
vn -0.7227 -0.6905 -0.0300
vn 0.9941 -0.1007 -0.0389
vn -0.8621 0.5064 -0.0168
vn 0.3168 0.8506 -0.4196
vn 0.1963 0.4979 -0.8447
vn -0.5450 0.7247 0.4216
vn 0.7608 -0.5783 -0.2945
vn 0.0303 -0.6999 0.7135
vn 0.3556 -0.2340 0.9049
vn 0.2514 -0.8366 -0.4866
vn -0.1803 -0.7439 0.6434
vn 0.9456 -0.2563 -0.2004
vn 0.7818 -0.2439 0.5738
vn -0.2678 -0.7470 0.6084
vn 0.2951 0.7739 0.5604
vn -0.7505 0.3336 0.5705
vn -0.3179 0.1065 -0.9421
vn -0.0602 -0.9875 0.1457
vn -0.7713 -0.2297 -0.5935
vn -0.2566 0.9663 -0.0190
vn -0.1594 -0.6920 0.7041
vn -0.9560 0.0589 0.2873
vn -0.1151 0.9543 -0.2756
vn 0.8171 0.0392 0.5752
vn -0.2059 0.8848 0.4181
vn 0.6279 0.2132 0.7484
vn 0.1351 0.5518 -0.8229
vn -0.8340 0.5312 0.1492
vn 0.8698 -0.4164 -0.2647
vn 0.1007 -0.3488 0.9317
vn 0.2629 -0.1961 0.9447
vn 0.6632 -0.6862 -0.2988
vn -0.1152 0.0646 -0.9912
vn 0.0328 -0.9994 -0.0062
vn -0.6383 -0.2876 -0.7140
vn -0.6203 0.7660 0.1688
vn -0.3674 0.9034 -0.2209
vn 0.6980 -0.1037 0.7085
vn 0.6279 0.2132 0.7485
vn -0.2959 -0.9551 -0.0123
vn -0.9018 0.1123 -0.4173
vn -0.5706 0.0022 -0.8212
vn -0.3260 -0.9328 0.1538
vn 0.2056 0.9409 -0.2690
vn 0.3194 0.1814 0.9301
vn 0.1337 0.3044 0.9431
vn 0.5155 0.8013 -0.3035
vn 0.7674 -0.0029 0.6411
vn 0.0327 0.9783 -0.2043
vn 0.0604 0.8190 0.5705
vn 0.7903 -0.0876 0.6063
vn -0.8191 0.1125 0.5625
vn -0.1514 -0.8047 0.5741
vn -0.0396 -0.1308 -0.9906
vn 0.9654 0.2605 -0.0102
vn 0.4238 -0.5584 -0.7131
vn -0.6034 -0.7783 0.1736
vn 0.7123 0.0057 0.7019
vn 0.1621 -0.9431 0.2904
vn -0.7962 -0.5650 -0.2163
vn -0.0565 0.7060 0.7059
vn -0.8130 -0.4011 0.4221
vn -0.3489 0.5654 0.7473
vn 0.0604 0.8191 0.5705
vn -0.7962 -0.5651 -0.2163
usemtl Material.001
s 1
f 1/1/1 5/2/2 7/3/3 3/4/4
f 6/5/5 2/6/6 4/7/7 8/8/8
f 9/9/9 3/10/4 7/11/3 10/12/10
f 11/13/11 1/14/1 3/15/4 9/16/9
f 12/17/12 5/18/2 1/19/1 11/20/11
f 10/21/10 7/3/3 5/2/2 12/22/12
f 8/23/8 10/24/10 12/25/12 6/26/5
f 6/5/5 12/27/12 11/13/11 2/6/6
f 2/6/6 11/13/11 9/16/9 4/7/7
f 4/7/7 9/16/9 10/28/10 8/8/8
f 13/29/13 14/30/14 16/31/15 15/32/16
f 14/30/14 17/33/17 19/34/18 16/31/15
f 39/35/19 40/36/20 31/37/21 30/38/22
f 40/36/20 41/39/23 32/40/24 31/37/21
f 17/33/17 18/41/25 20/42/26 19/34/18
f 18/41/25 21/43/27 23/44/28 20/42/26
f 41/45/23 43/46/29 35/47/30 32/48/24
f 43/46/29 46/49/31 38/50/32 35/47/30
f 21/43/27 22/51/33 24/52/34 23/44/28
f 22/51/33 25/53/35 27/54/36 24/52/34
f 46/55/31 45/56/37 37/57/38 38/58/32
f 45/56/37 44/59/39 36/60/40 37/57/38
f 25/53/35 26/61/41 28/62/42 27/54/36
f 26/61/41 13/29/13 15/32/16 28/62/42
f 44/63/39 42/64/43 33/65/44 36/66/40
f 42/64/43 39/67/19 30/68/22 33/65/44
f 25/53/35 22/51/33 29/69/45 26/61/41
f 22/51/33 21/43/27 18/41/25 29/69/45
f 26/61/41 29/69/45 14/30/14 13/29/13
f 29/69/45 18/41/25 17/33/17 14/30/14
f 30/38/22 31/37/21 34/70/46 33/71/44
f 31/37/21 32/40/24 35/72/30 34/70/46
f 33/71/44 34/70/46 37/57/38 36/60/40
f 34/70/46 35/72/30 38/58/32 37/57/38
f 50/73/47 47/74/48 39/67/19 42/64/43
f 52/75/49 50/73/47 42/64/43 44/63/39
f 53/76/50 52/77/49 44/78/39 45/79/37
f 54/80/51 53/76/50 45/79/37 46/81/31
f 51/82/52 54/83/51 46/49/31 43/46/29
f 49/84/53 51/82/52 43/46/29 41/45/23
f 48/85/54 49/84/53 41/45/23 40/86/20
f 47/87/48 48/88/54 40/89/20 39/90/19
f 15/91/16 16/92/15 48/88/54 47/87/48
f 16/92/15 19/93/18 49/94/53 48/88/54
f 19/95/18 20/96/26 51/82/52 49/84/53
f 20/96/26 23/97/28 54/83/51 51/82/52
f 23/98/28 24/99/34 53/76/50 54/80/51
f 24/99/34 27/100/36 52/77/49 53/76/50
f 27/101/36 28/102/42 50/73/47 52/75/49
f 28/102/42 15/103/16 47/74/48 50/73/47
f 55/104/55 56/105/56 58/106/57 57/107/58
f 56/108/56 59/109/59 61/110/60 58/111/57
f 81/112/61 82/113/62 73/114/63 72/115/64
f 82/116/62 83/117/65 74/118/66 73/119/63
f 59/109/59 60/120/67 62/121/68 61/110/60
f 60/120/67 63/122/69 65/123/70 62/121/68
f 83/117/65 85/124/71 77/125/72 74/118/66
f 85/124/71 88/126/73 80/127/74 77/125/72
f 63/122/69 64/128/75 66/129/76 65/123/70
f 64/130/75 67/131/77 69/132/78 66/133/76
f 88/134/73 87/135/79 79/136/80 80/137/74
f 87/138/79 86/139/81 78/140/82 79/141/80
f 67/142/77 68/143/83 70/144/84 69/145/78
f 68/143/83 55/146/55 57/147/58 70/144/84
f 86/139/81 84/148/85 75/149/86 78/140/82
f 84/148/85 81/112/61 72/115/64 75/149/86
f 67/150/77 64/128/75 71/151/87 68/152/83
f 64/128/75 63/122/69 60/120/67 71/151/87
f 68/152/83 71/151/87 56/108/56 55/153/55
f 71/151/87 60/120/67 59/109/59 56/108/56
f 72/115/64 73/114/63 76/154/88 75/149/86
f 73/114/63 74/155/66 77/156/72 76/154/88
f 75/149/86 76/154/88 79/141/80 78/140/82
f 76/154/88 77/156/72 80/157/74 79/141/80
f 92/158/89 89/159/90 81/112/61 84/148/85
f 94/160/91 92/158/89 84/148/85 86/139/81
f 95/161/92 94/162/91 86/163/81 87/135/79
f 96/164/93 95/161/92 87/135/79 88/134/73
f 93/165/94 96/166/93 88/167/73 85/168/71
f 91/169/95 93/165/94 85/168/71 83/170/65
f 90/171/96 91/172/95 83/173/65 82/174/62
f 89/175/90 90/171/96 82/174/62 81/176/61
f 57/107/58 58/106/57 90/171/96 89/175/90
f 58/106/57 61/177/60 91/172/95 90/171/96
f 61/110/60 62/121/68 93/165/94 91/169/95
f 62/121/68 65/123/70 96/166/93 93/165/94
f 65/178/70 66/133/76 95/161/92 96/164/93
f 66/133/76 69/132/78 94/162/91 95/161/92
f 69/179/78 70/180/84 92/158/89 94/160/91
f 70/180/84 57/181/58 89/159/90 92/158/89
f 97/182/97 98/183/98 101/184/99 100/185/100
f 98/183/98 99/186/101 102/187/102 101/184/99
f 99/186/101 106/188/103 109/189/104 102/187/102
f 100/190/100 101/191/99 104/192/105 103/193/106
f 101/191/99 102/194/102 105/195/107 104/192/105
f 102/196/102 109/197/104 112/198/108 105/199/107
f 103/193/106 104/192/105 138/200/109 137/201/110
f 104/192/105 105/195/107 139/202/111 138/200/109
f 105/199/107 112/198/108 140/203/112 139/204/111
f 106/188/103 107/205/113 110/206/114 109/189/104
f 107/205/113 108/207/115 111/208/116 110/206/114
f 108/207/115 115/209/117 118/210/118 111/208/116
f 109/197/104 110/211/114 113/212/119 112/198/108
f 110/211/114 111/213/116 114/214/120 113/212/119
f 111/215/116 118/216/118 121/217/121 114/218/120
f 112/198/108 113/212/119 144/219/122 140/203/112
f 113/212/119 114/214/120 148/220/123 144/219/122
f 114/214/120 121/221/121 152/222/124 148/220/123
f 115/209/117 116/223/125 119/224/126 118/210/118
f 116/223/125 117/225/127 120/226/128 119/224/126
f 117/225/127 124/227/129 127/228/130 120/226/128
f 118/216/118 119/229/126 122/230/131 121/217/121
f 119/229/126 120/231/128 123/232/132 122/230/131
f 120/233/128 127/234/130 130/235/133 123/236/132
f 121/237/121 122/238/131 151/239/134 152/240/124
f 122/238/131 123/241/132 150/242/135 151/239/134
f 123/241/132 130/243/133 149/244/136 150/242/135
f 124/227/129 125/245/137 128/246/138 127/228/130
f 125/245/137 126/247/139 129/248/140 128/246/138
f 126/247/139 97/182/97 100/185/100 129/248/140
f 127/234/130 128/249/138 131/250/141 130/235/133
f 128/251/138 129/252/140 132/253/142 131/254/141
f 129/252/140 100/190/100 103/193/106 132/253/142
f 130/243/133 131/254/141 145/255/143 149/244/136
f 131/254/141 132/253/142 141/256/144 145/255/143
f 132/253/142 103/193/106 137/201/110 141/256/144
f 124/227/129 117/225/127 133/257/145 125/245/137
f 117/225/127 116/223/125 134/258/146 133/257/145
f 116/223/125 115/209/117 108/207/115 134/258/146
f 125/245/137 133/257/145 135/259/147 126/247/139
f 133/257/145 134/258/146 136/260/148 135/259/147
f 134/258/146 108/207/115 107/205/113 136/260/148
f 126/247/139 135/259/147 98/183/98 97/182/97
f 135/259/147 136/260/148 99/186/101 98/183/98
f 136/260/148 107/205/113 106/188/103 99/186/101
f 137/201/110 138/200/109 142/261/149 141/256/144
f 138/200/109 139/202/111 143/262/150 142/261/149
f 139/202/111 140/263/112 144/264/122 143/262/150
f 141/256/144 142/261/149 146/265/151 145/255/143
f 142/261/149 143/262/150 147/266/152 146/265/151
f 143/262/150 144/264/122 148/267/123 147/266/152
f 145/255/143 146/265/151 150/242/135 149/244/136
f 146/265/151 147/266/152 151/239/134 150/242/135
f 147/266/152 148/267/123 152/240/124 151/239/134
f 153/268/153 154/269/154 157/270/155 156/271/156
f 154/269/154 155/272/157 158/273/158 157/270/155
f 155/272/157 162/274/159 165/275/160 158/273/158
f 156/276/156 157/277/155 160/278/161 159/279/162
f 157/277/155 158/280/158 161/281/163 160/278/161
f 158/280/158 165/282/160 168/283/164 161/281/163
f 159/284/162 160/285/161 194/286/165 193/287/166
f 160/285/161 161/288/163 195/289/167 194/286/165
f 161/288/163 168/290/164 196/291/168 195/289/167
f 209/292/169 163/293/170 166/294/171 214/295/172
f 163/296/170 164/297/173 167/298/174 166/299/171
f 164/297/173 171/300/175 174/301/176 167/298/174
f 214/302/172 166/303/171 169/304/177 217/305/178
f 166/303/171 167/306/174 170/307/179 169/304/177
f 167/306/174 174/308/176 177/309/180 170/307/179
f 217/305/178 169/304/177 200/310/181 211/311/182
f 169/312/177 170/313/179 204/314/183 200/315/181
f 170/313/179 177/316/180 208/317/184 204/314/183
f 171/300/175 172/318/185 175/319/186 174/301/176
f 172/318/185 173/320/187 176/321/188 175/319/186
f 173/320/187 180/322/189 183/323/190 176/321/188
f 174/324/176 175/325/186 178/326/191 177/327/180
f 175/325/186 176/328/188 179/329/192 178/326/191
f 176/330/188 183/331/190 186/332/193 179/333/192
f 177/316/180 178/334/191 207/335/194 208/317/184
f 178/334/191 179/336/192 206/337/195 207/335/194
f 179/336/192 186/338/193 205/339/196 206/337/195
f 180/322/189 181/340/197 184/341/198 183/323/190
f 181/340/197 182/342/199 185/343/200 184/341/198
f 212/344/201 153/345/153 156/276/156 215/346/202
f 183/347/190 184/348/198 187/349/203 186/338/193
f 184/348/198 185/350/200 188/351/204 187/349/203
f 215/346/202 156/276/156 159/279/162 219/352/205
f 186/338/193 187/349/203 201/353/206 205/339/196
f 187/349/203 188/351/204 197/354/207 201/353/206
f 219/355/205 159/284/162 193/287/166 213/356/208
f 180/322/189 173/320/187 189/357/209 181/340/197
f 173/320/187 172/318/185 190/358/210 189/357/209
f 172/318/185 171/300/175 164/297/173 190/358/210
f 181/340/197 189/357/209 191/359/211 182/342/199
f 189/357/209 190/358/210 192/360/212 191/359/211
f 190/358/210 164/297/173 163/296/170 192/360/212
f 212/361/201 216/362/213 154/269/154 153/268/153
f 216/362/213 218/363/214 155/272/157 154/269/154
f 218/363/214 209/364/169 162/274/159 155/272/157
f 213/356/208 220/365/215 198/366/216 197/354/207
f 220/365/215 210/367/217 199/368/218 198/366/216
f 210/367/217 211/369/182 200/315/181 199/368/218
f 197/354/207 198/366/216 202/370/219 201/353/206
f 198/366/216 199/368/218 203/371/220 202/370/219
f 199/368/218 200/315/181 204/314/183 203/371/220
f 201/353/206 202/370/219 206/337/195 205/339/196
f 202/370/219 203/371/220 207/335/194 206/337/195
f 203/371/220 204/314/183 208/317/184 207/335/194
f 195/289/167 196/291/168 211/369/182 210/367/217
f 194/286/165 195/289/167 210/367/217 220/365/215
f 193/287/166 194/286/165 220/365/215 213/356/208
f 192/360/212 163/296/170 209/364/169 218/363/214
f 191/359/211 192/360/212 218/363/214 216/362/213
f 182/342/199 191/359/211 216/362/213 212/361/201
f 188/351/204 219/355/205 213/356/208 197/354/207
f 185/372/200 215/346/202 219/352/205 188/373/204
f 182/374/199 212/344/201 215/346/202 185/372/200
f 168/375/164 217/305/178 211/311/182 196/376/168
f 165/377/160 214/302/172 217/305/178 168/375/164
f 162/274/159 209/364/169 214/378/172 165/275/160
f 221/379/221 225/380/222 227/381/223 223/382/224
f 226/383/225 222/384/226 224/385/227 228/386/228
f 229/387/229 223/388/224 227/389/223 230/390/230
f 231/391/231 221/392/221 223/393/224 229/394/229
f 232/395/232 225/396/222 221/397/221 231/398/231
f 230/399/230 227/381/223 225/380/222 232/400/232
f 228/401/228 230/399/230 232/400/232 226/402/225
f 226/383/225 232/403/232 231/391/231 222/384/226
f 222/384/226 231/391/231 229/394/229 224/385/227
f 224/404/227 229/387/229 230/390/230 228/405/228
f 245/406/233 234/407/234 236/408/235 246/409/236
f 246/410/236 236/411/235 240/412/237 247/413/238
f 247/414/238 240/415/237 238/416/239 248/417/240
f 248/418/240 238/419/239 234/420/234 245/421/233
f 235/422/241 239/423/242 237/424/243 233/425/244
f 238/416/239 240/415/237 252/426/245 251/427/246
f 237/428/243 244/429/247 241/430/248 233/431/244
f 239/423/242 243/432/249 244/433/247 237/424/243
f 235/434/241 242/435/250 243/436/249 239/437/242
f 233/438/244 241/439/248 242/440/250 235/441/241
f 244/429/247 248/418/240 245/421/233 241/430/248
f 243/432/249 247/414/238 248/417/240 244/433/247
f 242/435/250 246/410/236 247/413/238 243/436/249
f 241/439/248 245/406/233 246/409/236 242/440/250
f 251/442/246 252/443/245 256/444/251 255/445/252
f 236/408/235 234/407/234 249/446/253 250/447/254
f 234/448/234 238/449/239 251/450/246 249/451/253
f 240/412/237 236/411/235 250/452/254 252/453/245
f 256/454/251 254/455/255 253/456/256 255/457/252
f 250/447/254 249/446/253 253/456/256 254/455/255
f 249/446/253 251/458/246 255/457/252 253/456/256
f 252/459/245 250/447/254 254/455/255 256/454/251
f 269/460/257 258/461/258 260/462/259 270/463/260
f 270/464/260 260/465/259 264/466/261 271/467/262
f 271/468/262 264/469/261 262/470/263 272/471/264
f 272/472/264 262/473/263 258/474/258 269/475/257
f 259/476/265 263/477/266 261/478/267 257/479/268
f 262/480/263 264/481/261 276/482/269 275/483/270
f 261/484/267 268/485/271 265/486/272 257/487/268
f 263/477/266 267/488/273 268/489/271 261/478/267
f 259/490/265 266/491/274 267/492/273 263/493/266
f 257/494/268 265/495/272 266/496/274 259/497/265
f 268/485/271 272/472/264 269/475/257 265/486/272
f 267/488/273 271/468/262 272/471/264 268/489/271
f 266/491/274 270/464/260 271/467/262 267/492/273
f 265/498/272 269/460/257 270/463/260 266/499/274
f 275/500/270 276/501/269 280/502/275 279/503/276
f 260/462/259 258/461/258 273/504/277 274/505/278
f 258/461/258 262/506/263 275/500/270 273/504/277
f 264/507/261 260/462/259 274/505/278 276/501/269
f 280/502/275 278/508/279 277/509/280 279/503/276
f 274/505/278 273/504/277 277/509/280 278/508/279
f 273/504/277 275/500/270 279/503/276 277/509/280
f 276/501/269 274/505/278 278/508/279 280/502/275
f 281/510/281 282/511/282 284/512/283 283/513/284
f 282/514/282 285/515/285 287/516/286 284/517/283
f 307/518/287 308/519/288 299/520/289 298/521/290
f 308/519/288 309/522/291 300/523/292 299/520/289
f 285/515/285 286/524/293 288/525/294 287/516/286
f 286/524/293 289/526/295 291/527/296 288/525/294
f 309/528/291 311/529/297 303/530/298 300/531/292
f 311/529/297 314/532/299 306/533/300 303/530/298
f 289/526/295 290/534/301 292/535/302 291/527/296
f 290/536/301 293/537/303 295/538/304 292/539/302
f 314/540/299 313/541/305 305/542/306 306/543/300
f 313/544/305 312/545/307 304/546/308 305/547/306
f 293/548/303 294/549/309 296/550/310 295/551/304
f 294/549/309 281/552/281 283/553/284 296/550/310
f 312/545/307 310/554/311 301/555/312 304/546/308
f 310/554/311 307/556/287 298/557/290 301/555/312
f 293/558/303 290/534/301 297/559/313 294/560/309
f 290/534/301 289/526/295 286/524/293 297/559/313
f 294/560/309 297/559/313 282/514/282 281/561/281
f 297/559/313 286/524/293 285/515/285 282/514/282
f 298/562/290 299/563/289 302/564/314 301/565/312
f 299/563/289 300/566/292 303/567/298 302/564/314
f 301/565/312 302/564/314 305/568/306 304/569/308
f 302/564/314 303/567/298 306/570/300 305/568/306
f 296/571/310 283/572/284 307/556/287 310/554/311
f 295/573/304 296/571/310 310/554/311 312/545/307
f 292/574/302 295/573/304 312/545/307 313/544/305
f 291/575/296 292/576/302 313/541/305 314/540/299
f 288/525/294 291/527/296 314/532/299 311/529/297
f 287/516/286 288/525/294 311/529/297 309/528/291
f 284/512/283 287/577/286 309/522/291 308/519/288
f 283/513/284 284/512/283 308/519/288 307/518/287
f 315/578/315 316/579/316 318/580/317 317/581/318
f 316/582/316 319/583/319 321/584/320 318/585/317
f 341/586/321 342/587/322 333/588/323 332/589/324
f 342/590/322 343/591/325 334/592/326 333/593/323
f 319/583/319 320/594/327 322/595/328 321/584/320
f 320/594/327 323/596/329 325/597/330 322/595/328
f 343/598/325 345/599/331 337/600/332 334/601/326
f 345/599/331 348/602/333 340/603/334 337/600/332
f 323/596/329 324/604/335 326/605/336 325/597/330
f 324/606/335 327/607/337 329/608/338 326/609/336
f 348/610/333 347/611/339 339/612/340 340/613/334
f 347/614/339 346/615/341 338/616/342 339/617/340
f 327/618/337 328/619/343 330/620/344 329/621/338
f 328/619/343 315/622/315 317/623/318 330/620/344
f 346/615/341 344/624/345 335/625/346 338/616/342
f 344/624/345 341/586/321 332/589/324 335/625/346
f 327/626/337 324/604/335 331/627/347 328/628/343
f 324/604/335 323/596/329 320/594/327 331/627/347
f 328/628/343 331/627/347 316/582/316 315/629/315
f 331/627/347 320/594/327 319/583/319 316/582/316
f 332/630/324 333/631/323 336/632/348 335/633/346
f 333/631/323 334/601/326 337/600/332 336/632/348
f 335/633/346 336/632/348 339/634/340 338/635/342
f 336/632/348 337/600/332 340/603/334 339/634/340
f 330/620/344 317/623/318 341/586/321 344/624/345
f 329/621/338 330/620/344 344/624/345 346/615/341
f 326/636/336 329/621/338 346/615/341 347/614/339
f 325/637/330 326/638/336 347/611/339 348/610/333
f 322/595/328 325/597/330 348/602/333 345/599/331
f 321/584/320 322/595/328 345/599/331 343/598/325
f 318/639/317 321/640/320 343/591/325 342/590/322
f 317/623/318 318/641/317 342/587/322 341/586/321
f 357/642/349 358/643/350 352/644/351 351/645/352
f 356/646/353 355/647/354 363/648/355 364/649/356
f 359/650/357 360/651/358 354/652/359 353/653/360
f 353/654/360 354/655/359 350/656/361 349/657/362
f 357/658/349 359/650/357 353/653/360 349/659/362
f 360/660/358 358/661/350 350/662/361 354/663/359
f 356/664/353 352/665/351 358/666/350 360/667/358
f 351/668/352 355/669/354 359/670/357 357/671/349
f 355/647/354 356/646/353 360/651/358 359/650/357
f 349/672/362 350/673/361 358/643/350 357/642/349
f 362/674/363 364/649/356 368/675/364 366/676/365
f 355/677/354 351/645/352 361/678/366 363/679/355
f 352/665/351 356/664/353 364/680/356 362/681/363
f 351/645/352 352/644/351 362/682/363 361/678/366
f 366/676/365 368/675/364 372/683/367 370/684/368
f 361/678/366 362/682/363 366/685/365 365/686/369
f 364/649/356 363/648/355 367/687/370 368/675/364
f 363/679/355 361/678/366 365/686/369 367/688/370
f 369/689/371 370/690/368 372/691/367 371/692/372
f 365/686/369 366/685/365 370/693/368 369/694/371
f 368/675/364 367/687/370 371/695/372 372/683/367
f 367/688/370 365/686/369 369/694/371 371/696/372
f 381/697/349 382/698/350 376/699/373 375/700/374
f 380/701/375 379/702/376 387/703/377 388/704/378
f 383/705/357 384/706/358 378/707/359 377/708/360
f 377/709/360 378/710/359 374/711/361 373/712/362
f 381/713/349 383/705/357 377/708/360 373/714/362
f 384/715/358 382/716/350 374/717/361 378/718/359
f 380/719/375 376/720/373 382/721/350 384/722/358
f 375/723/374 379/724/376 383/725/357 381/726/349
f 379/702/376 380/701/375 384/706/358 383/705/357
f 373/727/362 374/728/361 382/698/350 381/697/349
f 386/729/379 388/704/378 392/730/380 390/731/381
f 379/732/376 375/700/374 385/733/382 387/734/377
f 376/720/373 380/719/375 388/735/378 386/736/379
f 375/700/374 376/699/373 386/737/379 385/733/382
f 390/731/381 392/730/380 396/738/367 394/739/368
f 385/733/382 386/737/379 390/740/381 389/741/383
f 388/704/378 387/703/377 391/742/384 392/730/380
f 387/734/377 385/733/382 389/741/383 391/743/384
f 393/744/371 394/745/368 396/746/367 395/747/385
f 389/741/383 390/740/381 394/748/368 393/749/371
f 392/730/380 391/742/384 395/750/385 396/738/367
f 391/743/384 389/741/383 393/749/371 395/751/385
f 405/752/386 406/753/387 400/754/388 399/755/389
f 404/756/390 403/757/391 411/758/392 412/759/393
f 407/760/394 408/761/395 402/762/396 401/763/397
f 401/764/397 402/765/396 398/766/398 397/767/399
f 405/752/386 407/768/394 401/769/397 397/770/399
f 408/761/395 406/771/387 398/772/398 402/762/396
f 404/756/390 400/773/388 406/771/387 408/761/395
f 399/755/389 403/774/391 407/768/394 405/752/386
f 403/757/391 404/756/390 408/761/395 407/760/394
f 397/770/399 398/775/398 406/753/387 405/752/386
f 410/776/400 412/777/393 416/778/401 414/779/402
f 403/774/391 399/755/389 409/780/403 411/781/392
f 400/773/388 404/756/390 412/759/393 410/782/400
f 399/755/389 400/754/388 410/783/400 409/780/403
f 414/784/402 416/785/401 420/786/404 418/787/405
f 409/780/403 410/783/400 414/784/402 413/788/406
f 412/759/393 411/758/392 415/789/407 416/790/401
f 411/791/392 409/792/403 413/793/406 415/794/407
f 417/795/408 418/796/405 420/797/404 419/798/409
f 413/788/406 414/784/402 418/787/405 417/799/408
f 416/790/401 415/789/407 419/800/409 420/801/404
f 415/789/407 413/802/406 417/803/408 419/800/409
f 429/804/386 430/805/387 424/806/388 423/807/389
f 428/808/390 427/809/391 435/810/392 436/811/393
f 431/812/394 432/813/395 426/814/410 425/815/397
f 425/816/397 426/817/410 422/818/398 421/819/399
f 429/804/386 431/820/394 425/821/397 421/822/399
f 432/813/395 430/823/387 422/824/398 426/814/410
f 428/808/390 424/825/388 430/823/387 432/813/395
f 423/807/389 427/826/391 431/820/394 429/804/386
f 427/809/391 428/808/390 432/813/395 431/812/394
f 421/822/399 422/827/398 430/805/387 429/804/386
f 434/828/400 436/829/393 440/830/401 438/831/402
f 427/826/391 423/807/389 433/832/403 435/833/392
f 424/825/388 428/808/390 436/811/393 434/834/400
f 423/807/389 424/806/388 434/835/400 433/832/403
f 438/836/402 440/837/401 444/838/404 442/839/405
f 433/832/403 434/835/400 438/836/402 437/840/411
f 436/811/393 435/810/392 439/841/407 440/842/401
f 435/843/392 433/844/403 437/845/411 439/846/407
f 441/847/408 442/848/405 444/849/404 443/850/409
f 437/840/411 438/836/402 442/839/405 441/851/408
f 440/842/401 439/841/407 443/852/409 444/853/404
f 439/841/407 437/854/411 441/855/408 443/852/409
